# xmcd
#
# Track frame offsets:
#	150
#	10078
#	23767
#	35546
#	45670
#	56883
#	68120
#	78283
#	91324
#	103781
#	114277
#	124064
#	137389
#	146986
#	159365
#	172486
#	182602
#	194330
#	204983
#	215704
#	231494
#	246778
#	260473
#	270701
#
# Disc length: 3794 seconds
#
# Revision: 1
# Processed by: cddbd v1.4PL0 Copyright (c) Steve Scherf et al.
# Submitted via: audiograbber 1.81.02
#
DISCID=5c0ed018
DTITLE=Patsy Cline - The Patsy Cline Story
DYEAR=1900
DGENRE=
TTITLE0=Heartaches
TTITLE1=She's Got You
TTITLE2=Walking After Midnight
TTITLE3=Strange
TTITLE4=Leavin' On Your Mind
TTITLE5=South Of The Border (Down Mexico Way)
TTITLE6=Foolin'  'Round
TTITLE7=I Fall To Pieces
TTITLE8=A Poor Man's Roses (Or A Rich Man's Gold)
TTITLE9=Tra Le La Le La Triangle
TTITLE10=True Love
TTITLE11=Imagine That
TTITLE12=Back In Baby's Arms
TTITLE13=Crazy
TTITLE14=You're Stronger Than Me
TTITLE15=Seven Lonely Days
TTITLE16=Sweet Dreams
TTITLE17=You're Cheatin' Heart
TTITLE18=San Antonio Rose
TTITLE19=Why Can't He Be You
TTITLE20=The Wayward Wind
TTITLE21=So Wrong
TTITLE22=I Love You So Much That Hurts
TTITLE23=You Belong To Me
EXTD=
EXTT0=
EXTT1=
EXTT2=
EXTT3=
EXTT4=
EXTT5=
EXTT6=
EXTT7=
EXTT8=
EXTT9=
EXTT10=
EXTT11=
EXTT12=
EXTT13=
EXTT14=
EXTT15=
EXTT16=
EXTT17=
EXTT18=
EXTT19=
EXTT20=
EXTT21=
EXTT22=
EXTT23=
PLAYORDER=
